<?xml version="1.0" encoding="UTF-8"?>
<svg width="20px" height="20px" viewBox="0 0 20 20" version="1.1" xmlns="http://www.w3.org/2000/svg" xmlns:xlink="http://www.w3.org/1999/xlink">
    <!-- Generator: Sketch 52.6 (67491) - http://www.bohemiancoding.com/sketch -->
    <title>ic_chats</title>
    <desc>Created with Sketch.</desc>
    <g id="Page-1" stroke="none" stroke-width="1" fill="none" fill-rule="evenodd">
        <g id="Artboard" transform="translate(-22.000000, -26.000000)" fill="#FFFFFF" fill-rule="nonzero">
            <path d="M39.5138122,26 L24.4861878,26 C23.110442,26 22,27.2181387 22,28.7273119 L22,39.6365597 C22,41.1456117 23.110442,42.3638716 24.4861878,42.3638716 L25.3149171,42.3638716 L25.3149171,45.0911836 C25.3149171,45.7479809 25.9348619,46.2236241 26.5414365,45.8911951 C26.558011,45.873013 26.5912155,45.873013 26.6077901,45.8547703 C31.1666851,42.5010857 30.1449724,43.248854 31.1658011,42.5092677 C31.2983425,42.4183573 31.4475138,42.3638716 31.6132597,42.3638716 L39.5138122,42.3638716 C40.889558,42.3638716 42,41.1456117 42,39.6365597 L42,28.7273119 C42,27.2181387 40.889558,26 39.5138122,26 Z M33.2164454,38 L26.7835546,38 C25.7409517,38 25.7366807,35.5 26.7835546,35.5 L33.2164454,35.5 C34.2590483,35.5 34.2633193,38 33.2164454,38 Z M37.2622808,33 L26.7377192,33 C25.7561052,33 25.752084,30.5 26.7377192,30.5 L37.2622808,30.5 C38.2438948,30.5 38.247916,33 37.2622808,33 Z" id="ic_chats"></path>
        </g>
    </g>
</svg>