<?xml version="1.0" encoding="UTF-8"?>
<svg width="24px" height="24px" viewBox="0 0 24 24" version="1.1" xmlns="http://www.w3.org/2000/svg" xmlns:xlink="http://www.w3.org/1999/xlink">
    <!-- Generator: Sketch 52.6 (67491) - http://www.bohemiancoding.com/sketch -->
    <title>Combined Shape</title>
    <desc>Created with Sketch.</desc>
    <g id="Page-1" stroke="none" stroke-width="1" fill="none" fill-rule="evenodd">
        <g id="Artboard" transform="translate(-19.000000, -9.000000)" fill="#FFFFFF">
            <path d="M35.1756945,21 L42.1351854,27.9594908 C43.2882715,29.112577 43.2882715,30.9820992 42.1351854,32.1351854 C40.9820992,33.2882715 39.112577,33.2882715 37.9594908,32.1351854 L31,25.1756945 L24.0405092,32.1351854 C22.887423,33.2882715 21.0179008,33.2882715 19.8648146,32.1351854 C18.7117285,30.9820992 18.7117285,29.112577 19.8648146,27.9594908 L26.8243055,21 L19.8648146,14.0405092 C18.7117285,12.887423 18.7117285,11.0179008 19.8648146,9.86481465 C21.0179008,8.71172845 22.887423,8.71172845 24.0405092,9.86481465 L31,16.8243055 L37.9594908,9.86481465 C39.112577,8.71172845 40.9820992,8.71172845 42.1351854,9.86481465 C43.2882715,11.0179008 43.2882715,12.887423 42.1351854,14.0405092 L35.1756945,21 Z" id="Combined-Shape"></path>
        </g>
    </g>
</svg>