<?xml version="1.0" encoding="UTF-8"?>
<svg width="456px" height="114px" viewBox="0 0 456 114" version="1.1" xmlns="http://www.w3.org/2000/svg" xmlns:xlink="http://www.w3.org/1999/xlink">
    <!-- Generator: Sketch 52.6 (67491) - http://www.bohemiancoding.com/sketch -->
    <title>LogoH_Green_Fill_onDark</title>
    <desc>Created with Sketch.</desc>
    <defs>
        <linearGradient x1="50%" y1="103.026824%" x2="50%" y2="33.5858956%" id="linearGradient-1">
            <stop stop-color="#1EB4B4" offset="0%"></stop>
            <stop stop-color="#32C88C" offset="100%"></stop>
        </linearGradient>
    </defs>
    <g id="Page-1" stroke="none" stroke-width="1" fill="none" fill-rule="evenodd">
        <g id="Logos" transform="translate(-796.000000, -450.000000)">
            <g id="onGray" transform="translate(776.000000, 115.000000)">
                <g id="LogoH_Green_Fill_onDark" transform="translate(20.000000, 335.000000)">
                    <path d="M433.7438,42.3107 C427.9438,42.3107 423.0248,46.5357 421.2968,52.3947 L446.1918,52.3947 C444.4628,46.5357 439.5438,42.3107 433.7438,42.3107 Z M455.5188,59.1387 L420.7668,59.1387 C421.6788,66.2677 427.1408,71.7467 433.7438,71.7467 C437.9538,71.7467 441.6998,69.5197 444.0978,66.0577 L453.8088,66.0577 C450.4438,74.0857 442.7248,79.7017 433.7438,79.7017 C421.6678,79.7017 411.8768,69.5497 411.8768,57.0287 C411.8768,44.5057 421.6678,34.3557 433.7438,34.3557 C445.8208,34.3557 455.6118,44.5057 455.6118,57.0287 C455.6118,57.7407 455.5798,58.4447 455.5188,59.1387 Z M407.3492,79.1681 L396.0622,79.1681 L376.9272,56.4631 L395.9152,34.7661 L406.4522,34.7661 L388.4342,56.1741 L388.1922,56.4691 L388.4342,56.7571 L407.3492,79.1681 Z M367.697,79.168 L367.697,34.766 L376.927,34.766 L376.927,79.168 L367.697,79.168 Z M265.4489,42.3107 C259.6489,42.3107 254.7299,46.5357 253.0019,52.3947 L277.8969,52.3947 C276.1679,46.5357 271.2489,42.3107 265.4489,42.3107 Z M287.2239,59.1387 L252.4719,59.1387 C253.3839,66.2677 258.8459,71.7467 265.4489,71.7467 C269.6589,71.7467 273.4049,69.5197 275.8029,66.0577 L285.5139,66.0577 C282.1489,74.0857 274.4299,79.7017 265.4489,79.7017 C253.3729,79.7017 243.5819,69.5497 243.5819,57.0287 C243.5819,44.5057 253.3729,34.3557 265.4489,34.3557 C277.5259,34.3557 287.3169,44.5057 287.3169,57.0287 C287.3169,57.7407 287.2849,58.4447 287.2239,59.1387 Z M343.24,79.17 L343.24,34.766 L352.47,34.766 L352.47,79.17 L343.24,79.17 Z M330.86,70.2374 L330.86,79.0084 L306.512,79.0084 C302.827,79.0084 299.823,76.0104 299.823,72.3254 L299.823,34.7654 L309.053,34.7654 L309.053,70.2374 L330.86,70.2374 Z M238.3365,34.7648 L222.1455,75.4958 C221.1395,78.0148 218.7595,79.6658 216.0445,79.7018 C213.3295,79.6658 210.9495,78.0148 209.9445,75.4958 L193.7535,34.7648 L203.0295,34.7648 L216.0445,68.1248 L229.0595,34.7648 L238.3365,34.7648 Z M173.69,79.17 L173.69,34.766 L182.921,34.766 L182.921,79.17 L173.69,79.17 Z M161.7609,70.3995 L161.7609,79.1705 L137.4069,79.1705 C133.7269,79.1705 130.7179,76.1715 130.7179,72.4865 L130.7179,34.9275 L139.9489,34.9275 L139.9489,70.3995 L161.7609,70.3995 Z" id="Wordmark" fill="#FFFFFF"></path>
                    <path d="M45.209,25.943 C46.932,24.948 48.866,24.45 50.8,24.45 C52.731,24.45 54.663,24.946 56.387,25.938 L60.985,28.59 C61.057,28.632 61.131,28.67 61.206,28.705 L91.834,46.364 C97.854,49.836 101.594,56.309 101.594,63.254 L101.594,79.682 C101.594,83.682 99.44,87.413 95.975,89.416 L56.416,112.271 C52.945,114.272 48.637,114.274 45.173,112.275 L5.621,89.455 C2.154,87.457 2.13162821e-14,83.727 2.13162821e-14,79.722 L2.13162821e-14,66.53 C1.904,68.869 4.238,70.88 6.923,72.427 L22.766,81.56 C22.873,81.644 22.984,81.72 23.103,81.788 L42.475,92.962 C47.681,95.964 54.143,95.962 59.338,92.956 L78.722,81.761 C84.105,78.648 87.016,74.073 87.142,68.533 C87.143,68.489 87.143,68.447 87.142,68.404 C87.016,62.847 84.1,58.27 78.71,55.169 L77.634,54.548 C77.57,54.504 77.505,54.462 77.437,54.424 L59.335,43.99 C59.298,43.968 59.26,43.947 59.223,43.928 C54.043,40.994 47.64,41.014 42.481,43.991 L25.762,53.635 C22.18,51.551 20.373,48.854 20.242,45.395 C20.374,41.92 22.203,39.211 25.829,37.117 L45.209,25.943 Z M50.744,-7.81597009e-14 L50.855,-7.81597009e-14 C52.776,0.009 54.696,0.507 56.411,1.495 L95.967,24.3 C99.437,26.3 101.594,30.032 101.594,34.038 L101.594,47.346 C99.689,45.007 97.355,42.995 94.67,41.446 L63.825,23.663 C63.753,23.621 63.68,23.583 63.604,23.548 L59.22,21.02 C54.019,18.026 47.562,18.029 42.372,21.026 L22.992,32.201 C17.693,35.26 14.783,39.742 14.571,45.163 C14.559,45.317 14.559,45.473 14.571,45.628 C14.783,51.056 17.694,55.539 22.991,58.589 L42.37,69.765 C47.562,72.762 54.019,72.765 59.215,69.775 L76.004,60.161 C79.578,62.257 81.365,64.976 81.464,68.469 C81.365,71.991 79.537,74.733 75.882,76.847 L56.497,88.042 C53.051,90.035 48.765,90.036 45.311,88.045 L26.29,77.074 C26.185,76.99 26.071,76.914 25.952,76.846 L9.758,67.509 C3.739,64.04 2.13162821e-14,57.568 2.13162821e-14,50.62 L2.13162821e-14,34.053 C2.13162821e-14,30.044 2.154,26.313 5.621,24.315 L45.184,1.499 C46.899,0.509 48.82,0.009 50.744,-7.81597009e-14 Z" id="Symbol" fill="url(#linearGradient-1)"></path>
                </g>
            </g>
        </g>
    </g>
</svg>